HIERARCHY
ROOT Hips
{
	OFFSET -0.001795 -0.223333 0.028219
	CHANNELS 6 Xposition Yposition Zposition Zrotation Yrotation Xrotation 
	JOINT LeftUpLeg
	{
		OFFSET 0.069520 -0.091406 -0.006815
		CHANNELS 3 Zrotation Yrotation Xrotation
		JOINT LeftLeg
		{
			OFFSET 0.034277 -0.375199 -0.004496
			CHANNELS 3 Zrotation Yrotation Xrotation
			JOINT LeftFoot
			{
				OFFSET -0.013596 -0.397961 -0.043693
				CHANNELS 3 Zrotation Yrotation Xrotation
				JOINT LeftToe
				{
					OFFSET 0.026358 -0.055791 0.119288
					CHANNELS 3 Zrotation Yrotation Xrotation
					End Site
					{
						OFFSET 0.000000 0.000000 0.000000
					}
				}
			}
		}
	}
	JOINT RightUpLeg
	{
		OFFSET -0.067670 -0.090522 -0.004320
		CHANNELS 3 Zrotation Yrotation Xrotation
		JOINT RightLeg
		{
			OFFSET -0.038290 -0.382569 -0.008850
			CHANNELS 3 Zrotation Yrotation Xrotation
			JOINT RightFoot
			{
				OFFSET 0.015774 -0.398415 -0.042312
				CHANNELS 3 Zrotation Yrotation Xrotation
				JOINT RightToe
				{
					OFFSET -0.025372 -0.048144 0.123348
					CHANNELS 3 Zrotation Yrotation Xrotation
					End Site
					{
						OFFSET 0.000000 0.000000 0.000000
					}
				}
			}
		}
	}
	JOINT Spine
	{
		OFFSET -0.002533 0.108963 -0.026696
		CHANNELS 3 Zrotation Yrotation Xrotation
		JOINT Spine1
		{
			OFFSET 0.005487 0.135180 0.001092
			CHANNELS 3 Zrotation Yrotation Xrotation
			JOINT Spine2
			{
				OFFSET 0.001457 0.052922 0.025425
				CHANNELS 3 Zrotation Yrotation Xrotation
				JOINT Neck
				{
					OFFSET -0.002778 0.213870 -0.042857
					CHANNELS 3 Zrotation Yrotation Xrotation
					JOINT Head
					{
						OFFSET 0.005152 0.064970 0.051349
						CHANNELS 3 Zrotation Yrotation Xrotation
						End Site
						{
							OFFSET 0.000000 0.000000 0.000000
						}
					}
				}
				JOINT LeftShoulder
				{
					OFFSET 0.078845 0.121749 -0.034090
					CHANNELS 3 Zrotation Yrotation Xrotation
					JOINT LeftArm
					{
						OFFSET 0.090977 0.030469 -0.008868
						CHANNELS 3 Zrotation Yrotation Xrotation
						JOINT LeftForeArm
						{
							OFFSET 0.259612 -0.012772 -0.027456
							CHANNELS 3 Zrotation Yrotation Xrotation
							JOINT LeftHand
							{
								OFFSET 0.249234 0.008986 -0.001171
								CHANNELS 3 Zrotation Yrotation Xrotation
								End Site
								{
									OFFSET 0.000000 0.000000 0.000000
								}
							}
						}
					}
				}
				JOINT RightShoulder
				{
					OFFSET -0.081759 0.118833 -0.038615
					CHANNELS 3 Zrotation Yrotation Xrotation
					JOINT RightArm
					{
						OFFSET -0.096012 0.032551 -0.009143
						CHANNELS 3 Zrotation Yrotation Xrotation
						JOINT RightForeArm
						{
							OFFSET -0.253742 -0.013329 -0.021401
							CHANNELS 3 Zrotation Yrotation Xrotation
							JOINT RightHand
							{
								OFFSET -0.255298 0.007772 -0.005559
								CHANNELS 3 Zrotation Yrotation Xrotation
								End Site
								{
									OFFSET 0.000000 0.000000 0.000000
								}
							}
						}
					}
				}
			}
		}
	}
}
MOTION
Frames: 10
Frame Time: 0.050000
0.115391 0.835102 -0.265817 7.547110 -44.675683 9.806394 19.116699 16.550172 -42.727236 -7.901401 8.535838 36.527337 8.099957 13.311862 16.102820 0.000000 0.000000 0.000000 -37.399578 5.015720 -45.032060 45.074353 -7.410708 33.513568 -39.248844 -47.844719 52.722656 0.000000 0.000000 0.000000 12.748110 3.709904 54.341639 -2.649681 1.172355 -36.723389 -7.606718 -15.889688 21.490613 -17.641382 5.815240 -55.915766 0.000000 0.000000 0.000000 -38.696745 -9.952844 21.177283 -8.010897 -33.206827 -3.376704 66.397928 -80.931979 -54.066627 0.000000 0.000000 0.000000 13.569150 24.249976 2.774830 23.384431 11.743667 0.735325 -38.793606 80.918097 -41.336097 0.000000 0.000000 0.000000 
0.119725 0.835902 -0.269193 8.515049 -45.569298 8.785416 17.385591 15.488560 -42.505463 -5.258193 8.018849 38.824008 5.938929 10.239084 11.866024 0.000000 0.000000 0.000000 -37.377216 5.247798 -45.272373 44.644412 -7.083561 33.690713 -41.766924 -49.797097 52.577546 0.000000 0.000000 0.000000 14.007575 3.591529 55.059561 -3.563805 1.243115 -36.555328 -8.201548 -18.531488 21.774151 -15.160097 4.817119 -54.845847 0.000000 0.000000 0.000000 -38.267319 -10.189906 22.469550 -7.170997 -32.747875 -3.565152 86.577516 -78.934638 -71.175638 0.000000 0.000000 0.000000 12.568645 24.964449 2.558992 25.575854 11.579572 0.922809 -43.611881 78.890687 -45.755392 0.000000 0.000000 0.000000 
0.128304 0.836580 -0.268426 8.080689 -47.051764 8.765900 16.484794 14.995314 -41.819899 -3.350516 8.106974 41.409630 3.869157 7.084956 9.622451 0.000000 0.000000 0.000000 -36.962748 5.655251 -45.443278 44.428653 -6.475322 33.222645 -42.737302 -51.080305 51.538196 0.000000 0.000000 0.000000 14.531122 4.082930 56.341571 -3.214206 1.259991 -37.239249 -8.295228 -19.287025 21.923781 -13.996208 4.388842 -54.288966 0.000000 0.000000 0.000000 -37.426505 -10.858535 22.935583 -7.968579 -33.205289 -3.485243 96.270299 -79.734164 -80.893394 0.000000 0.000000 0.000000 14.010942 25.569747 2.179315 25.019971 10.601418 0.946514 -49.224136 77.064519 -48.998629 0.000000 0.000000 0.000000 
0.140263 0.834495 -0.264174 7.003544 -49.059257 9.803081 16.207866 15.444736 -41.721416 -2.890194 8.371448 41.937579 3.375914 6.171077 8.105117 0.000000 0.000000 0.000000 -37.049522 6.219200 -46.495933 45.400740 -6.179851 32.690964 -43.370651 -52.929195 48.646954 0.000000 0.000000 0.000000 14.525903 4.972318 57.739014 -1.615941 1.153452 -38.493234 -8.800693 -19.421684 21.821165 -12.212736 3.865538 -54.566485 0.000000 0.000000 0.000000 -36.869646 -10.890351 22.824032 -8.614459 -32.721311 -3.380741 112.858036 -79.896143 -97.426540 0.000000 0.000000 0.000000 14.230535 25.292528 1.880454 25.799893 10.434964 0.978172 -52.690565 74.716505 -50.258595 0.000000 0.000000 0.000000 
0.154871 0.830246 -0.257453 5.625320 -51.085944 10.802511 15.619717 16.398991 -42.856762 -1.851905 8.792981 44.505868 2.931763 5.355072 5.235261 0.000000 0.000000 0.000000 -37.660694 6.772394 -47.546208 46.616142 -5.747121 31.412985 -46.292926 -54.425745 50.611075 0.000000 0.000000 0.000000 14.770350 5.849418 59.157014 -0.520219 1.106027 -39.060983 -9.103323 -20.309732 21.989570 -12.319984 3.976448 -55.727993 0.000000 0.000000 0.000000 -36.163416 -11.257064 23.199476 -7.720958 -33.119418 -3.455790 118.752339 -79.024226 -102.695650 0.000000 0.000000 0.000000 14.148292 25.842292 1.839475 26.068553 9.826045 0.960699 -54.527854 71.778671 -49.820421 0.000000 0.000000 0.000000 
0.171026 0.823944 -0.249207 4.134561 -53.370582 11.972052 15.549323 17.690971 -43.618735 -1.288045 9.416048 46.624930 2.930511 5.227839 2.756937 0.000000 0.000000 0.000000 -39.002265 7.341894 -48.722293 48.741243 -5.414877 29.806184 -48.534728 -55.958069 51.211615 0.000000 0.000000 0.000000 15.883665 6.645880 61.544887 -0.001168 1.128259 -40.182920 -9.675906 -21.775807 22.049203 -11.970949 3.957218 -56.996961 0.000000 0.000000 0.000000 -35.739408 -12.373010 24.169696 -6.178738 -34.188353 -3.612831 109.997154 -78.091959 -93.051599 0.000000 0.000000 0.000000 14.696383 26.368036 1.553409 24.994639 9.431333 1.038022 -53.656798 69.520152 -47.321000 0.000000 0.000000 0.000000 
0.186885 0.818212 -0.240470 3.335366 -55.034557 12.373690 14.266253 18.472283 -45.431132 0.621200 9.241426 49.582615 2.676609 4.693014 1.277383 0.000000 0.000000 0.000000 -40.370992 7.731287 -49.312507 49.458766 -4.741672 27.845073 -53.076865 -56.953204 56.148347 0.000000 0.000000 0.000000 16.658960 7.343591 63.344953 0.160024 1.202572 -41.251250 -10.620830 -24.052722 22.749866 -10.898471 3.702664 -57.855805 0.000000 0.000000 0.000000 -34.730140 -13.055002 24.928335 -4.069334 -35.661896 -3.933675 100.089285 -75.421939 -80.486017 0.000000 0.000000 0.000000 14.589920 27.526672 1.482446 24.813661 8.483382 1.054939 -48.448775 67.637463 -42.311770 0.000000 0.000000 0.000000 
0.200452 0.813706 -0.231896 1.813044 -56.908176 13.531275 13.672218 19.587000 -46.602367 1.652793 9.324646 51.443046 3.207133 5.536249 0.614720 0.000000 0.000000 0.000000 -41.083372 8.259978 -49.932573 50.184451 -4.143766 26.738202 -53.116541 -57.671668 55.105515 0.000000 0.000000 0.000000 17.384318 8.008489 64.638455 0.856116 1.197774 -41.734485 -11.089169 -24.962541 22.722323 -9.737821 3.251267 -57.254303 0.000000 0.000000 0.000000 -34.123733 -14.535165 25.934296 -1.829504 -36.918786 -4.275606 88.508779 -73.053792 -67.572145 0.000000 0.000000 0.000000 15.075596 28.259875 1.348999 24.146981 6.987879 0.963400 -44.463975 66.071498 -38.054015 0.000000 0.000000 0.000000 
0.211067 0.810415 -0.223625 0.727882 -58.525683 14.763575 12.528281 20.495102 -48.294261 3.332065 8.939065 53.609796 3.328712 5.672981 0.110066 0.000000 0.000000 0.000000 -41.696932 8.762360 -50.926832 50.308345 -3.647459 25.922484 -54.631726 -58.595652 55.797045 0.000000 0.000000 0.000000 17.718353 8.712888 65.427265 0.973299 1.296078 -42.320313 -11.785821 -26.278353 23.153790 -8.742396 3.053819 -57.785677 0.000000 0.000000 0.000000 -32.344879 -14.794017 25.670082 -1.207172 -38.369438 -4.370257 81.858353 -70.510622 -58.764257 0.000000 0.000000 0.000000 15.082911 28.766403 1.084669 24.767172 5.853830 0.893074 -41.262887 65.355302 -35.567801 0.000000 0.000000 0.000000 
0.218919 0.808538 -0.215153 -0.391235 -59.999599 15.522911 12.636645 21.488469 -48.547492 4.111077 8.952533 54.683721 3.190627 5.316152 -1.601258 0.000000 0.000000 0.000000 -42.426112 9.175946 -51.513523 50.768100 -3.240780 25.277172 -54.869022 -58.200877 57.135238 0.000000 0.000000 0.000000 18.094538 9.380920 66.369806 1.083095 1.377297 -43.033097 -11.733147 -27.173028 23.174355 -8.068329 2.817686 -57.721050 0.000000 0.000000 0.000000 -31.122874 -14.652015 25.197681 -0.810414 -39.381281 -4.422003 78.773630 -68.364692 -53.825393 0.000000 0.000000 0.000000 15.277399 28.595322 0.589709 24.582111 4.670975 0.834523 -39.844534 65.625364 -34.875255 0.000000 0.000000 0.000000 
